<svg width="42" height="33" viewBox="0 0 42 33" fill="none" xmlns="http://www.w3.org/2000/svg">
<path d="M12.4055 17.3962L21.2165 10.9358C21.4162 10.8063 21.6711 10.8063 21.8708 10.9358L30.7254 17.3962V9.68818C30.7739 8.6312 29.9743 7.7343 28.9396 7.68484C28.9242 7.68407 28.9089 7.68356 28.8934 7.68322H14.2375C13.2019 7.70667 12.3809 8.58319 12.4039 9.6411C12.4042 9.6568 12.4047 9.67249 12.4055 9.68818V17.3962Z" fill="#011C40"/>
<path d="M23.7464 1H19.3845V6.34662H23.7464V1Z" fill="#011C40"/>
<path d="M32.2956 31.1638L35 22.03L31.2052 19.3122L30.9434 19.1785L22.0016 12.8072V31.6094H21.5217L20.6929 31.5649V12.8072L8 22.03L10.7916 31.1193L12.4039 32.9904C12.4039 32.9904 13.7624 32.9904 15.1582 32.9904C15.1582 32.9904 20.2467 32.997 21.5218 32.9904C22.8198 33.012 25.1251 32.9904 25.1251 32.9904H30.8127L32.2956 31.1638Z" fill="#011C40"/>
</svg>
