<svg width="18" height="22" viewBox="0 0 18 22" fill="none" xmlns="http://www.w3.org/2000/svg">
<path d="M17.999 15.42V18.956C17.9991 19.2092 17.9032 19.453 17.7306 19.6382C17.558 19.8234 17.3216 19.9363 17.0691 19.954C16.6321 19.984 16.2751 20 15.9991 20C7.1626 20 0 12.837 0 4C0 3.724 0.0149992 3.367 0.0459974 2.93C0.0637189 2.67744 0.176571 2.44101 0.361783 2.26841C0.546995 2.09581 0.790779 1.99989 1.04394 2H4.57975C4.70378 1.99987 4.82343 2.04586 4.91546 2.12902C5.00748 2.21218 5.06531 2.32658 5.07772 2.45C5.10072 2.68 5.12172 2.863 5.14171 3.002C5.34044 4.38892 5.74768 5.73783 6.34965 7.003C6.44464 7.203 6.38265 7.442 6.20266 7.57L4.04478 9.112C5.36416 12.1865 7.81411 14.6365 10.8884 15.956L12.4283 13.802C12.4913 13.714 12.5831 13.6509 12.6878 13.6237C12.7925 13.5964 12.9034 13.6068 13.0013 13.653C14.2662 14.2539 15.6147 14.6601 17.0011 14.858C17.14 14.878 17.323 14.9 17.551 14.922C17.6743 14.9346 17.7884 14.9926 17.8714 15.0846C17.9543 15.1766 18.0002 15.2961 18 15.42H17.999Z" fill="#011C40"/>
</svg>
