<svg width="42" height="33" viewBox="0 0 42 33" fill="none" xmlns="http://www.w3.org/2000/svg">
<path d="M39.555 21.056L1.57287 17.0684C1.28101 17.0378 1.0843 17.3326 1.23548 17.5673C3.66312 21.3403 9.41009 24 16.1 24H38.7584C38.9124 24 39.0475 23.9068 39.093 23.7698L39.8504 21.476C39.9148 21.281 39.7727 21.0788 39.555 21.056Z" fill="#011C40"/>
<path d="M41.8896 14.5177C41.7782 14.3559 41.597 14.2483 41.3933 14.2229L30.8932 12.9184C30.5145 12.8721 30.1582 13.1219 30.1065 13.4787C30.0547 13.8355 30.3248 14.1642 30.7078 14.2117L31.8964 14.3591C32.07 14.3807 32.2002 14.519 32.2002 14.682V15.6903C32.2002 15.884 32.0195 16.0353 31.8131 16.0145L29.0131 15.7347C28.8353 15.7177 28.7002 15.5774 28.7002 15.4111V12.5565C28.7002 12.4919 28.7205 12.4293 28.759 12.3758L29.9826 10.6657C30.1226 10.4701 30.1387 10.2196 30.0253 10.0103C29.9112 9.80025 29.6852 9.66329 29.4332 9.65221L14.7331 9.00003C14.4972 8.99804 14.2683 9.09266 14.1304 9.27266C14.1304 9.27266 11.3332 12.9354 10.72 13.7415C10.6465 13.838 10.5233 13.8896 10.3973 13.8765L0.774214 12.9165C0.575451 12.897 0.379396 12.9564 0.231739 13.0796C0.0847386 13.2035 0 13.3796 0 13.5648C0 14.1929 0.0875276 14.8086 0.252739 15.406C0.289161 15.5378 0.412372 15.6336 0.55724 15.6493L40.1052 19.8012C40.2725 19.8188 40.4293 19.7229 40.479 19.5729L41.9694 15.0609C42.0295 14.8777 42.0001 14.6788 41.8896 14.5177ZM20.2007 10.9051L19.6547 14.4675C19.6281 14.6403 19.4635 14.7635 19.2767 14.746C17.911 14.6175 12.7799 14.1146 12.7799 14.1146C12.5139 14.0879 12.3768 13.8042 12.5321 13.6007L14.9366 10.4643C15.0059 10.3742 15.1193 10.3227 15.2383 10.328L19.871 10.5334C20.0768 10.5425 20.23 10.7147 20.2007 10.9051ZM27.7894 11.3806L27.3589 11.9806C27.3204 12.0341 27.3001 12.0974 27.3001 12.1619V15.2019C27.3001 15.3955 27.1195 15.5469 26.913 15.526L21.3577 14.9717C21.161 14.9521 21.0203 14.7838 21.0483 14.6012L21.6146 10.9078C21.6398 10.7415 21.7973 10.6202 21.9779 10.628L27.5149 10.8739C27.7866 10.8856 27.9406 11.1693 27.7894 11.3806ZM36.4001 16.1097C36.4001 16.3034 36.2195 16.4547 36.013 16.4338C36.013 16.4338 34.5598 16.2812 33.9088 16.2095C33.7324 16.1906 33.6001 16.051 33.6001 15.886V14.9429C33.6001 14.746 33.7863 14.5933 33.9963 14.6194L36.0963 14.8802C36.2699 14.9024 36.4001 15.0407 36.4001 15.2038V16.1097ZM40.2662 15.7823L40.0065 16.5675C39.9576 16.7162 39.8014 16.8121 39.6348 16.7958L38.1123 16.6439C37.9352 16.6263 37.8001 16.486 37.8001 16.3197V15.4653C37.8001 15.2684 37.9863 15.1157 38.1963 15.1418L39.9778 15.3629C40.192 15.3897 40.3299 15.5893 40.2662 15.7823Z" fill="#011C40"/>
</svg>
