<svg width="70" height="40" viewBox="0 0 70 40" fill="none" xmlns="http://www.w3.org/2000/svg">
<path fill-rule="evenodd" clip-rule="evenodd" d="M0.903517 32.125L14.6726 13.5429L18.4395 15.556L27.4026 1L32.9879 7.65881L35.0665 5.95532L43.1199 16.1755L48.8355 9.36191L64.8126 32.125L49.42 12.7689L47.0817 20.8984L49.225 27.3249L35.456 8.35558L35.3069 14.8279L43.1199 32.125L28.5064 5.33574L32.7282 19.8145L26.8181 5.72292L23.5706 15.0916L24.2198 8.97472L16.1013 31.0411L17.0753 21.75L13.6981 18.0338L0.903517 32.125Z"/>
<path fill-rule="evenodd" clip-rule="evenodd" d="M69.4414 35.0314C47.641 17.428 13.7091 41.6289 0 32.2961C15.0723 45.5215 50.3019 23.1644 69.4414 35.0314Z"/>
<path fill-rule="evenodd" clip-rule="evenodd" d="M70 36.4157C52.8956 25.5171 27.4568 40.6838 14.4189 37.1717C28.5467 44.0283 54.8482 28.8361 70 36.4157Z"/>
</svg>
