<svg width="20" height="20" viewBox="0 0 20 20" fill="none" xmlns="http://www.w3.org/2000/svg">
<path d="M19.999 4.42905C19.2689 4.76016 18.4947 4.97761 17.7019 5.07421C18.5375 4.56184 19.1629 3.75547 19.4616 2.80537C18.6774 3.28385 17.8176 3.61917 16.9215 3.80056C16.3196 3.14028 15.5217 2.70238 14.652 2.55494C13.7823 2.4075 12.8895 2.55877 12.1123 2.98524C11.3351 3.41172 10.7171 4.0895 10.3543 4.91321C9.99163 5.73692 9.90451 6.66042 10.1065 7.54013C8.51623 7.45841 6.96046 7.03471 5.54024 6.29654C4.12002 5.55838 2.86709 4.52225 1.8628 3.25541C1.50731 3.8814 1.32051 4.59302 1.3215 5.31737C1.3215 6.73907 2.02729 7.99507 3.10032 8.73043C2.46531 8.70994 1.84428 8.53412 1.28899 8.21764V8.26863C1.28918 9.21548 1.60876 10.1331 2.19355 10.866C2.77834 11.5988 3.59234 12.1018 4.49754 12.2896C3.90806 12.4534 3.28997 12.4775 2.69004 12.3602C2.94526 13.1752 3.4427 13.888 4.1127 14.3987C4.78271 14.9095 5.59173 15.1926 6.4265 15.2085C5.59685 15.8765 4.6469 16.3703 3.63098 16.6617C2.61505 16.9531 1.55306 17.0364 0.505737 16.9067C2.33399 18.1121 4.46225 18.7521 6.63594 18.75C13.9931 18.75 18.0165 12.5014 18.0165 7.08224C18.0165 6.90575 18.0117 6.72731 18.0041 6.55278C18.7872 5.9725 19.4631 5.25366 20 4.43003L19.999 4.42905Z" fill="#F9FBFD"/>
</svg>
