<svg xmlns="http://www.w3.org/2000/svg" xmlns:xlink="http://www.w3.org/1999/xlink"><symbol id="all-inclusive" viewBox="0 0 42 33">
<path d="M30.7534 8.21506L28.4398 6L18.0732 15.9325L20.3868 18.1476L30.7534 8.21506ZM37.6945 6L20.3787 22.5699L13.5602 16.0421L11.2466 18.2572L20.3787 27L40 8.21506L37.6945 6ZM2 18.2572L11.1321 27L13.4458 24.7849L4.31368 16.0421L2 18.2572Z" fill="#011C40"/>
</symbol><symbol id="boat" viewBox="0 0 42 33">
<path d="M39.555 21.056L1.57287 17.0684C1.28101 17.0378 1.0843 17.3326 1.23548 17.5673C3.66312 21.3403 9.41009 24 16.1 24H38.7584C38.9124 24 39.0475 23.9068 39.093 23.7698L39.8504 21.476C39.9148 21.281 39.7727 21.0788 39.555 21.056Z" fill="#011C40"/>
<path d="M41.8896 14.5177C41.7782 14.3559 41.597 14.2483 41.3933 14.2229L30.8932 12.9184C30.5145 12.8721 30.1582 13.1219 30.1065 13.4787C30.0547 13.8355 30.3248 14.1642 30.7078 14.2117L31.8964 14.3591C32.07 14.3807 32.2002 14.519 32.2002 14.682V15.6903C32.2002 15.884 32.0195 16.0353 31.8131 16.0145L29.0131 15.7347C28.8353 15.7177 28.7002 15.5774 28.7002 15.4111V12.5565C28.7002 12.4919 28.7205 12.4293 28.759 12.3758L29.9826 10.6657C30.1226 10.4701 30.1387 10.2196 30.0253 10.0103C29.9112 9.80025 29.6852 9.66329 29.4332 9.65221L14.7331 9.00003C14.4972 8.99804 14.2683 9.09266 14.1304 9.27266C14.1304 9.27266 11.3332 12.9354 10.72 13.7415C10.6465 13.838 10.5233 13.8896 10.3973 13.8765L0.774214 12.9165C0.575451 12.897 0.379396 12.9564 0.231739 13.0796C0.0847386 13.2035 0 13.3796 0 13.5648C0 14.1929 0.0875276 14.8086 0.252739 15.406C0.289161 15.5378 0.412372 15.6336 0.55724 15.6493L40.1052 19.8012C40.2725 19.8188 40.4293 19.7229 40.479 19.5729L41.9694 15.0609C42.0295 14.8777 42.0001 14.6788 41.8896 14.5177ZM20.2007 10.9051L19.6547 14.4675C19.6281 14.6403 19.4635 14.7635 19.2767 14.746C17.911 14.6175 12.7799 14.1146 12.7799 14.1146C12.5139 14.0879 12.3768 13.8042 12.5321 13.6007L14.9366 10.4643C15.0059 10.3742 15.1193 10.3227 15.2383 10.328L19.871 10.5334C20.0768 10.5425 20.23 10.7147 20.2007 10.9051ZM27.7894 11.3806L27.3589 11.9806C27.3204 12.0341 27.3001 12.0974 27.3001 12.1619V15.2019C27.3001 15.3955 27.1195 15.5469 26.913 15.526L21.3577 14.9717C21.161 14.9521 21.0203 14.7838 21.0483 14.6012L21.6146 10.9078C21.6398 10.7415 21.7973 10.6202 21.9779 10.628L27.5149 10.8739C27.7866 10.8856 27.9406 11.1693 27.7894 11.3806ZM36.4001 16.1097C36.4001 16.3034 36.2195 16.4547 36.013 16.4338C36.013 16.4338 34.5598 16.2812 33.9088 16.2095C33.7324 16.1906 33.6001 16.051 33.6001 15.886V14.9429C33.6001 14.746 33.7863 14.5933 33.9963 14.6194L36.0963 14.8802C36.2699 14.9024 36.4001 15.0407 36.4001 15.2038V16.1097ZM40.2662 15.7823L40.0065 16.5675C39.9576 16.7162 39.8014 16.8121 39.6348 16.7958L38.1123 16.6439C37.9352 16.6263 37.8001 16.486 37.8001 16.3197V15.4653C37.8001 15.2684 37.9863 15.1157 38.1963 15.1418L39.9778 15.3629C40.192 15.3897 40.3299 15.5893 40.2662 15.7823Z" fill="#011C40"/>
</symbol><symbol id="facebook" viewBox="0 0 20 20">
<path d="M11.3333 11.5H13.9524L15 7.5H11.3333V5.5C11.3333 4.47 11.3333 3.5 13.4286 3.5H15V0.14C14.6585 0.0970001 13.3689 0 12.007 0C9.16267 0 7.14286 1.657 7.14286 4.7V7.5H4V11.5H7.14286V20H11.3333V11.5Z" fill="#F9FBFD"/>
</symbol><symbol id="icon-close" viewBox="0 0 20 20"><path d="M.293 18.291a1 1 0 101.414 1.414L10 11.413l8.292 8.292a1 1 0 101.414-1.414l-8.292-8.292 8.292-8.292A1 1 0 1018.291.293L9.999 8.585 1.707.293A1 1 0 10.293 1.707L8.585 10 .293 18.291z"/></symbol><symbol id="identic" viewBox="0 0 70 40">
<path fill-rule="evenodd" clip-rule="evenodd" d="M0.903517 32.125L14.6726 13.5429L18.4395 15.556L27.4026 1L32.9879 7.65881L35.0665 5.95532L43.1199 16.1755L48.8355 9.36191L64.8126 32.125L49.42 12.7689L47.0817 20.8984L49.225 27.3249L35.456 8.35558L35.3069 14.8279L43.1199 32.125L28.5064 5.33574L32.7282 19.8145L26.8181 5.72292L23.5706 15.0916L24.2198 8.97472L16.1013 31.0411L17.0753 21.75L13.6981 18.0338L0.903517 32.125Z"/>
<path fill-rule="evenodd" clip-rule="evenodd" d="M69.4414 35.0314C47.641 17.428 13.7091 41.6289 0 32.2961C15.0723 45.5215 50.3019 23.1644 69.4414 35.0314Z"/>
<path fill-rule="evenodd" clip-rule="evenodd" d="M70 36.4157C52.8956 25.5171 27.4568 40.6838 14.4189 37.1717C28.5467 44.0283 54.8482 28.8361 70 36.4157Z"/>
</symbol><symbol id="instagram" viewBox="0 0 20 20">
<path d="M10 0C12.717 0 13.056 0.00999994 14.122 0.0599999C15.187 0.11 15.912 0.277 16.55 0.525C17.21 0.779 17.766 1.123 18.322 1.678C18.8305 2.1779 19.224 2.78259 19.475 3.45C19.722 4.087 19.89 4.813 19.94 5.878C19.987 6.944 20 7.283 20 10C20 12.717 19.99 13.056 19.94 14.122C19.89 15.187 19.722 15.912 19.475 16.55C19.2247 17.2178 18.8311 17.8226 18.322 18.322C17.822 18.8303 17.2173 19.2238 16.55 19.475C15.913 19.722 15.187 19.89 14.122 19.94C13.056 19.987 12.717 20 10 20C7.283 20 6.944 19.99 5.878 19.94C4.813 19.89 4.088 19.722 3.45 19.475C2.78233 19.2245 2.17753 18.8309 1.678 18.322C1.16941 17.8222 0.775931 17.2175 0.525 16.55C0.277 15.913 0.11 15.187 0.0599999 14.122C0.0129999 13.056 0 12.717 0 10C0 7.283 0.00999994 6.944 0.0599999 5.878C0.11 4.812 0.277 4.088 0.525 3.45C0.775236 2.78218 1.1688 2.17732 1.678 1.678C2.17767 1.16923 2.78243 0.775729 3.45 0.525C4.088 0.277 4.812 0.11 5.878 0.0599999C6.944 0.0129999 7.283 0 10 0ZM10 5C8.67392 5 7.40215 5.52678 6.46447 6.46447C5.52678 7.40215 5 8.67392 5 10C5 11.3261 5.52678 12.5979 6.46447 13.5355C7.40215 14.4732 8.67392 15 10 15C11.3261 15 12.5979 14.4732 13.5355 13.5355C14.4732 12.5979 15 11.3261 15 10C15 8.67392 14.4732 7.40215 13.5355 6.46447C12.5979 5.52678 11.3261 5 10 5V5ZM16.5 4.75C16.5 4.41848 16.3683 4.10054 16.1339 3.86612C15.8995 3.6317 15.5815 3.5 15.25 3.5C14.9185 3.5 14.6005 3.6317 14.3661 3.86612C14.1317 4.10054 14 4.41848 14 4.75C14 5.08152 14.1317 5.39946 14.3661 5.63388C14.6005 5.8683 14.9185 6 15.25 6C15.5815 6 15.8995 5.8683 16.1339 5.63388C16.3683 5.39946 16.5 5.08152 16.5 4.75ZM10 7C10.7956 7 11.5587 7.31607 12.1213 7.87868C12.6839 8.44129 13 9.20435 13 10C13 10.7956 12.6839 11.5587 12.1213 12.1213C11.5587 12.6839 10.7956 13 10 13C9.20435 13 8.44129 12.6839 7.87868 12.1213C7.31607 11.5587 7 10.7956 7 10C7 9.20435 7.31607 8.44129 7.87868 7.87868C8.44129 7.31607 9.20435 7 10 7V7Z" fill="#F9FBFD"/>
</symbol><symbol id="liner" viewBox="0 0 42 33">
<path d="M12.4055 17.3962L21.2165 10.9358C21.4162 10.8063 21.6711 10.8063 21.8708 10.9358L30.7254 17.3962V9.68818C30.7739 8.6312 29.9743 7.7343 28.9396 7.68484C28.9242 7.68407 28.9089 7.68356 28.8934 7.68322H14.2375C13.2019 7.70667 12.3809 8.58319 12.4039 9.6411C12.4042 9.6568 12.4047 9.67249 12.4055 9.68818V17.3962Z" fill="#011C40"/>
<path d="M23.7464 1H19.3845V6.34662H23.7464V1Z" fill="#011C40"/>
<path d="M32.2956 31.1638L35 22.03L31.2052 19.3122L30.9434 19.1785L22.0016 12.8072V31.6094H21.5217L20.6929 31.5649V12.8072L8 22.03L10.7916 31.1193L12.4039 32.9904C12.4039 32.9904 13.7624 32.9904 15.1582 32.9904C15.1582 32.9904 20.2467 32.997 21.5218 32.9904C22.8198 33.012 25.1251 32.9904 25.1251 32.9904H30.8127L32.2956 31.1638Z" fill="#011C40"/>
</symbol><symbol id="phone" viewBox="0 0 18 22">
<path d="M17.999 15.42V18.956C17.9991 19.2092 17.9032 19.453 17.7306 19.6382C17.558 19.8234 17.3216 19.9363 17.0691 19.954C16.6321 19.984 16.2751 20 15.9991 20C7.1626 20 0 12.837 0 4C0 3.724 0.0149992 3.367 0.0459974 2.93C0.0637189 2.67744 0.176571 2.44101 0.361783 2.26841C0.546995 2.09581 0.790779 1.99989 1.04394 2H4.57975C4.70378 1.99987 4.82343 2.04586 4.91546 2.12902C5.00748 2.21218 5.06531 2.32658 5.07772 2.45C5.10072 2.68 5.12172 2.863 5.14171 3.002C5.34044 4.38892 5.74768 5.73783 6.34965 7.003C6.44464 7.203 6.38265 7.442 6.20266 7.57L4.04478 9.112C5.36416 12.1865 7.81411 14.6365 10.8884 15.956L12.4283 13.802C12.4913 13.714 12.5831 13.6509 12.6878 13.6237C12.7925 13.5964 12.9034 13.6068 13.0013 13.653C14.2662 14.2539 15.6147 14.6601 17.0011 14.858C17.14 14.878 17.323 14.9 17.551 14.922C17.6743 14.9346 17.7884 14.9926 17.8714 15.0846C17.9543 15.1766 18.0002 15.2961 18 15.42H17.999Z" fill="#011C40"/>
</symbol><symbol id="pin" viewBox="0 0 18 22">
<path d="M15.364 15.5563L9 22L2.636 15.5563C1.37734 14.2819 0.520187 12.6581 0.172928 10.8905C-0.17433 9.12277 0.00390685 7.29051 0.685099 5.62539C1.36629 3.96027 2.51984 2.53707 3.99988 1.53576C5.47992 0.534448 7.21998 0 9 0C10.78 0 12.5201 0.534448 14.0001 1.53576C15.4802 2.53707 16.6337 3.96027 17.3149 5.62539C17.9961 7.29051 18.1743 9.12277 17.8271 10.8905C17.4798 12.6581 16.6227 14.2819 15.364 15.5563ZM9 11.1377C9.53044 11.1377 10.0391 10.9243 10.4142 10.5445C10.7893 10.1648 11 9.64969 11 9.11262C11 8.57554 10.7893 8.06047 10.4142 7.6807C10.0391 7.30093 9.53044 7.08757 9 7.08757C8.46957 7.08757 7.96086 7.30093 7.58579 7.6807C7.21072 8.06047 7 8.57554 7 9.11262C7 9.64969 7.21072 10.1648 7.58579 10.5445C7.96086 10.9243 8.46957 11.1377 9 11.1377Z" fill="#011C40"/>
</symbol><symbol id="twitter" viewBox="0 0 20 20">
<path d="M19.999 4.42905C19.2689 4.76016 18.4947 4.97761 17.7019 5.07421C18.5375 4.56184 19.1629 3.75547 19.4616 2.80537C18.6774 3.28385 17.8176 3.61917 16.9215 3.80056C16.3196 3.14028 15.5217 2.70238 14.652 2.55494C13.7823 2.4075 12.8895 2.55877 12.1123 2.98524C11.3351 3.41172 10.7171 4.0895 10.3543 4.91321C9.99163 5.73692 9.90451 6.66042 10.1065 7.54013C8.51623 7.45841 6.96046 7.03471 5.54024 6.29654C4.12002 5.55838 2.86709 4.52225 1.8628 3.25541C1.50731 3.8814 1.32051 4.59302 1.3215 5.31737C1.3215 6.73907 2.02729 7.99507 3.10032 8.73043C2.46531 8.70994 1.84428 8.53412 1.28899 8.21764V8.26863C1.28918 9.21548 1.60876 10.1331 2.19355 10.866C2.77834 11.5988 3.59234 12.1018 4.49754 12.2896C3.90806 12.4534 3.28997 12.4775 2.69004 12.3602C2.94526 13.1752 3.4427 13.888 4.1127 14.3987C4.78271 14.9095 5.59173 15.1926 6.4265 15.2085C5.59685 15.8765 4.6469 16.3703 3.63098 16.6617C2.61505 16.9531 1.55306 17.0364 0.505737 16.9067C2.33399 18.1121 4.46225 18.7521 6.63594 18.75C13.9931 18.75 18.0165 12.5014 18.0165 7.08224C18.0165 6.90575 18.0117 6.72731 18.0041 6.55278C18.7872 5.9725 19.4631 5.25366 20 4.43003L19.999 4.42905Z" fill="#F9FBFD"/>
</symbol></svg>